<svg width="175" height="63" viewBox="0 0 175 63" fill="none" xmlns="http://www.w3.org/2000/svg">
<path d="M65.67 43.24C65.05 43.24 64.38 43.21 63.66 43.15C62.96 43.11 62.24 43.03 61.5 42.91C60.76 42.79 60.05 42.62 59.37 42.4V20.68H63.18V29.47C63.78 28.83 64.46 28.32 65.22 27.94C66 27.54 66.9 27.34 67.92 27.34C69.12 27.34 70.14 27.67 70.98 28.33C71.82 28.99 72.46 29.9 72.9 31.06C73.36 32.22 73.59 33.56 73.59 35.08C73.59 36.64 73.33 38.03 72.81 39.25C72.29 40.47 71.45 41.44 70.29 42.16C69.13 42.88 67.59 43.24 65.67 43.24ZM65.94 40.39C66.78 40.39 67.47 40.2 68.01 39.82C68.57 39.42 68.98 38.83 69.24 38.05C69.52 37.27 69.66 36.3 69.66 35.14C69.66 33.54 69.41 32.33 68.91 31.51C68.43 30.67 67.66 30.25 66.6 30.25C65.84 30.25 65.19 30.41 64.65 30.73C64.13 31.03 63.64 31.48 63.18 32.08V40.03C63.76 40.17 64.25 40.27 64.65 40.33C65.05 40.37 65.48 40.39 65.94 40.39ZM60.09 20.68L59.73 23.71L57.99 23.35C57.73 23.29 57.52 23.19 57.36 23.05C57.2 22.91 57.12 22.7 57.12 22.42V20.68H60.09ZM77.433 43V27.58H81.213V43H77.433ZM75.183 43V41.26C75.183 40.98 75.253 40.77 75.393 40.63C75.553 40.49 75.773 40.39 76.053 40.33L77.763 39.97L78.153 43H75.183ZM80.493 43L80.883 39.97L82.593 40.33C82.873 40.39 83.083 40.49 83.223 40.63C83.383 40.77 83.463 40.98 83.463 41.26V43H80.493ZM78.153 27.58L77.763 30.61L76.053 30.25C75.773 30.19 75.553 30.09 75.393 29.95C75.253 29.81 75.183 29.6 75.183 29.32V27.58H78.153ZM79.383 25.45C78.743 25.45 78.183 25.22 77.703 24.76C77.223 24.3 76.983 23.75 76.983 23.11C76.983 22.45 77.223 21.89 77.703 21.43C78.183 20.95 78.743 20.71 79.383 20.71C80.043 20.71 80.613 20.95 81.093 21.43C81.573 21.89 81.813 22.45 81.813 23.11C81.813 23.75 81.573 24.3 81.093 24.76C80.613 25.22 80.043 25.45 79.383 25.45ZM90.7924 43.24C89.4524 43.24 88.4124 42.86 87.6724 42.1C86.9524 41.34 86.5924 40.29 86.5924 38.95V30.37H85.0324C84.8324 30.37 84.6624 30.31 84.5224 30.19C84.3824 30.07 84.3124 29.88 84.3124 29.62V28.12L86.8024 27.7L87.5824 23.53C87.6624 23.11 87.9424 22.9 88.4224 22.9H90.3724V27.73H94.4224V30.37H90.3724V38.71C90.3724 39.19 90.4924 39.57 90.7324 39.85C90.9724 40.11 91.2924 40.24 91.6924 40.24C91.9124 40.24 92.1124 40.2 92.2924 40.12C92.4724 40.02 92.6424 39.93 92.8024 39.85C92.9624 39.77 93.1024 39.73 93.2224 39.73C93.4024 39.73 93.5624 39.84 93.7024 40.06L94.8424 41.89C94.3024 42.31 93.6824 42.64 92.9824 42.88C92.2824 43.12 91.5524 43.24 90.7924 43.24ZM103.147 43.24C101.828 43.24 100.638 42.91 99.5775 42.25C98.5375 41.57 97.7075 40.64 97.0875 39.46C96.4875 38.26 96.1875 36.86 96.1875 35.26C96.1875 33.72 96.4775 32.36 97.0575 31.18C97.6375 29.98 98.4875 29.04 99.6075 28.36C100.728 27.68 102.098 27.34 103.718 27.34C104.478 27.34 105.268 27.44 106.088 27.64C106.928 27.82 107.758 28.09 108.578 28.45V30.64L106.658 30.88C106.258 30.64 105.848 30.47 105.428 30.37C105.028 30.25 104.538 30.19 103.958 30.19C103.078 30.19 102.348 30.4 101.768 30.82C101.208 31.24 100.788 31.83 100.508 32.59C100.248 33.35 100.118 34.24 100.118 35.26C100.118 36.86 100.438 38.12 101.078 39.04C101.738 39.94 102.658 40.39 103.838 40.39C104.478 40.39 105.018 40.28 105.458 40.06C105.898 39.82 106.278 39.58 106.598 39.34C106.918 39.1 107.208 38.98 107.468 38.98C107.628 38.98 107.758 39.01 107.858 39.07C107.978 39.13 108.078 39.21 108.158 39.31L109.238 40.69C108.418 41.65 107.478 42.32 106.418 42.7C105.358 43.06 104.268 43.24 103.147 43.24ZM105.908 29.98L108.578 30.64V32.98H107.198C106.918 32.98 106.708 32.9 106.568 32.74C106.428 32.58 106.328 32.37 106.268 32.11L105.908 29.98ZM115.162 43.24C114.282 43.24 113.502 43.08 112.822 42.76C112.142 42.44 111.612 41.97 111.232 41.35C110.852 40.73 110.662 39.96 110.662 39.04C110.662 38.48 110.812 37.92 111.112 37.36C111.432 36.78 111.942 36.26 112.642 35.8C113.362 35.36 114.312 34.99 115.492 34.69C116.672 34.37 118.132 34.19 119.872 34.15V33.28C119.872 32.24 119.652 31.48 119.212 31C118.792 30.5 118.172 30.25 117.352 30.25C116.772 30.25 116.232 30.37 115.732 30.61C115.252 30.83 114.802 31.06 114.382 31.3C113.982 31.52 113.592 31.63 113.212 31.63C112.952 31.63 112.722 31.56 112.522 31.42C112.342 31.28 112.202 31.12 112.102 30.94L111.412 29.74C112.312 28.92 113.292 28.31 114.352 27.91C115.432 27.51 116.592 27.31 117.832 27.31C119.032 27.31 120.062 27.56 120.922 28.06C121.782 28.56 122.442 29.26 122.902 30.16C123.362 31.06 123.592 32.1 123.592 33.28V43H121.882C121.502 43 121.212 42.95 121.012 42.85C120.832 42.75 120.682 42.53 120.562 42.19L120.262 41.11C119.482 41.79 118.702 42.32 117.922 42.7C117.162 43.06 116.242 43.24 115.162 43.24ZM116.362 40.66C117.082 40.66 117.712 40.53 118.252 40.27C118.812 39.99 119.352 39.58 119.872 39.04V36.46C118.992 36.48 118.202 36.55 117.502 36.67C116.822 36.77 116.242 36.92 115.762 37.12C115.302 37.3 114.942 37.54 114.682 37.84C114.442 38.12 114.322 38.46 114.322 38.86C114.322 39.52 114.502 39.99 114.862 40.27C115.242 40.53 115.742 40.66 116.362 40.66ZM122.842 43L123.232 39.97L124.972 40.33C125.232 40.39 125.442 40.49 125.602 40.63C125.762 40.77 125.842 40.98 125.842 41.26V43H122.842ZM129.406 43V27.58H131.716C132.216 27.58 132.536 27.81 132.676 28.27L132.916 29.41C133.456 28.83 134.056 28.34 134.716 27.94C135.376 27.54 136.156 27.34 137.056 27.34C138.036 27.34 138.836 27.61 139.456 28.15C140.076 28.67 140.536 29.36 140.836 30.22C141.316 29.22 142.006 28.49 142.906 28.03C143.806 27.57 144.766 27.34 145.786 27.34C147.506 27.34 148.816 27.86 149.716 28.9C150.636 29.94 151.096 31.37 151.096 33.19V43H147.316V33.19C147.316 32.23 147.106 31.5 146.686 31C146.266 30.5 145.636 30.25 144.796 30.25C144.056 30.25 143.426 30.51 142.906 31.03C142.406 31.55 142.156 32.27 142.156 33.19V43H138.346V33.19C138.346 32.17 138.136 31.43 137.716 30.97C137.316 30.49 136.726 30.25 135.946 30.25C135.406 30.25 134.906 30.39 134.446 30.67C134.006 30.93 133.586 31.28 133.186 31.72V43H129.406ZM127.156 43V41.26C127.156 40.98 127.226 40.77 127.366 40.63C127.526 40.49 127.746 40.39 128.026 40.33L129.736 39.97L130.126 43H127.156ZM132.466 43L132.856 39.97L134.566 40.33C134.846 40.39 135.056 40.49 135.196 40.63C135.356 40.77 135.436 40.98 135.436 41.26V43H132.466ZM141.436 43L141.796 39.97L143.536 40.33C143.796 40.39 144.006 40.49 144.166 40.63C144.326 40.77 144.406 40.98 144.406 41.26V43H141.436ZM130.126 27.58L129.736 30.61L128.026 30.25C127.746 30.19 127.526 30.09 127.366 29.95C127.226 29.81 127.156 29.6 127.156 29.32V27.58H130.126ZM150.376 43L150.766 39.97L152.476 40.33C152.756 40.39 152.966 40.49 153.106 40.63C153.266 40.77 153.346 40.98 153.346 41.26V43H150.376ZM156.915 48.04V27.58H159.225C159.745 27.58 160.065 27.81 160.185 28.27L160.485 29.71C161.125 28.99 161.845 28.41 162.645 27.97C163.465 27.53 164.395 27.31 165.435 27.31C166.655 27.31 167.685 27.64 168.525 28.3C169.365 28.96 170.005 29.88 170.445 31.06C170.905 32.24 171.135 33.61 171.135 35.17C171.135 36.67 170.865 38.03 170.325 39.25C169.785 40.45 169.025 41.42 168.045 42.16C167.065 42.88 165.885 43.24 164.505 43.24C163.645 43.24 162.915 43.11 162.315 42.85C161.735 42.57 161.195 42.19 160.695 41.71V48.04H156.915ZM163.635 40.39C164.415 40.39 165.065 40.19 165.585 39.79C166.125 39.39 166.525 38.8 166.785 38.02C167.065 37.24 167.205 36.29 167.205 35.17C167.205 33.55 166.955 32.33 166.455 31.51C165.975 30.67 165.205 30.25 164.145 30.25C163.385 30.25 162.735 30.41 162.195 30.73C161.675 31.03 161.175 31.48 160.695 32.08V39.01C161.115 39.51 161.565 39.87 162.045 40.09C162.545 40.29 163.075 40.39 163.635 40.39ZM157.635 27.58L157.245 30.61L155.535 30.25C155.255 30.19 155.035 30.09 154.875 29.95C154.735 29.81 154.665 29.6 154.665 29.32V27.58H157.635ZM154.665 48.04V46.3C154.665 46.02 154.735 45.81 154.875 45.67C155.035 45.53 155.255 45.43 155.535 45.37L157.245 45.01L157.635 48.04H154.665ZM159.975 48.04L160.365 45.01L162.075 45.37C162.355 45.43 162.565 45.53 162.705 45.67C162.865 45.81 162.945 46.02 162.945 46.3V48.04H159.975Z" fill="#FF6F3F"/>
<path d="M48.9708 44.0648C48.9708 46.5828 46.8298 48.4655 44.3843 48.4655C41.942 48.4655 39.7941 46.5853 39.7941 44.0648C39.7941 41.5475 41.9379 39.6583 44.3841 39.6581L48.9708 44.0648ZM48.9708 44.0648C48.9708 41.5498 46.834 39.6579 44.3843 39.6581L48.9708 44.0648Z" fill="#7F6C5F" stroke="#FFF7E2" stroke-width="3" stroke-linejoin="round"/>
<path d="M16.435 39.8066C16.042 39.8924 15.6999 40.1325 15.4856 40.4729C15.2713 40.8134 15.2027 41.2256 15.2952 41.6171L15.2958 41.6195C15.3892 42.0149 15.6391 42.3555 15.9882 42.5633C16.3363 42.7706 16.7533 42.8282 17.1445 42.7232C17.1457 42.7229 17.1483 42.7223 17.1525 42.7213L17.1741 42.7162L17.2081 42.708C18.0063 42.5138 18.4997 41.7136 18.3149 40.9132C18.1302 40.1128 17.3359 39.6099 16.5333 39.7851L16.435 39.8066Z" fill="#7F6C5F" stroke="#FFF7E2" stroke-width="3" stroke-linejoin="round"/>
<path d="M45.5174 42.5231C45.5854 42.5084 45.6518 42.489 45.7163 42.4653C47.5464 41.9314 48.9709 40.295 48.9709 38.252C48.9709 35.7343 46.83 33.8513 44.3844 33.8513C44.0205 33.8513 43.6746 33.8948 43.3504 33.9672C43.3222 33.9717 43.2939 33.9769 43.2657 33.9831L16.722 39.7442C15.9231 39.9176 15.4102 40.6987 15.5686 41.5007C15.727 42.3026 16.4983 42.8301 17.3031 42.6868C17.4119 42.6674 17.5154 42.6578 17.6148 42.6578C18.5794 42.6578 19.2041 43.3735 19.2041 44.0645C19.2041 44.6425 18.7782 45.2254 18.0493 45.4088C17.6512 45.509 17.3116 45.7679 17.1096 46.1252C16.9075 46.4825 16.8608 46.907 16.9801 47.2997L16.9813 47.3035C17.2085 48.0509 17.9711 48.4988 18.7345 48.3332L45.5174 42.5231Z" fill="#7F6C5F" stroke="#FFF7E2" stroke-width="3" stroke-linejoin="round"/>
<path d="M22.2042 44.0648C22.2042 46.5845 20.0588 48.4655 17.6148 48.4655C15.1689 48.4655 13.0289 46.5825 13.0289 44.0648C13.0289 41.5504 15.1645 39.6583 17.6146 39.6581L22.2042 44.0648ZM22.2042 44.0648C22.2042 41.5481 20.063 39.6579 17.6148 39.6581L22.2042 44.0648Z" fill="#A58D7C" stroke="#FFF7E2" stroke-width="3" stroke-linejoin="round"/>
<path d="M44.6957 42.6871C45.5003 42.8296 46.271 42.3018 46.429 41.5C46.587 40.6982 46.0741 39.9175 45.2755 39.7442L18.7347 33.9831C18.7093 33.9776 18.6838 33.9727 18.6584 33.9686C18.3582 33.9048 18.0094 33.8513 17.6148 33.8513C15.1209 33.8513 13.1018 35.7805 13.1018 38.252C13.1018 40.2962 14.6111 41.8512 16.254 42.4134C16.3227 42.4454 16.3943 42.4723 16.4684 42.4939C16.4698 42.4943 16.4722 42.4951 16.476 42.4963C16.4766 42.4965 16.4774 42.4968 16.4785 42.4971C16.4893 42.5007 16.5262 42.5129 16.5633 42.5238C16.6425 42.5472 16.7343 42.5695 16.8406 42.585L43.2651 48.333C44.0165 48.4965 44.7699 48.0651 45.0093 47.3343L45.0105 47.3308C45.1401 46.9353 45.0995 46.5037 44.8985 46.1393C44.6975 45.7748 44.3541 45.5103 43.9504 45.4089C43.2208 45.2257 42.7942 44.6418 42.7942 44.0648C42.7942 43.3744 43.4196 42.6581 44.3845 42.6581C44.4831 42.6581 44.5861 42.6677 44.6957 42.6871Z" fill="#A58D7C" stroke="#FFF7E2" stroke-width="3" stroke-linejoin="round"/>
<path d="M44.858 42.7239C45.2418 42.8259 45.6504 42.7715 45.9942 42.5727C46.3392 42.3731 46.5906 42.0446 46.6929 41.6594L46.6935 41.6573C46.7987 41.2613 46.7374 40.8395 46.5238 40.4899C46.3101 40.1403 45.9628 39.8932 45.5624 39.8062L45.4698 39.7861C44.6663 39.6115 43.8719 40.1163 43.6889 40.918C43.5058 41.7196 44.0023 42.5192 44.802 42.7107L44.8329 42.718L44.852 42.7224C44.8549 42.7231 44.8569 42.7236 44.858 42.7239C44.858 42.7239 44.858 42.7239 44.858 42.7239Z" fill="#A58D7C" stroke="#FFF7E2" stroke-width="3" stroke-linejoin="round"/>
<path d="M26.3265 31.482V27.1804H31C31.8285 27.1804 32.5 26.5088 32.5 25.6804V23.7461C32.5 22.9177 31.8285 22.2461 31 22.2461H30.4424V21.8048C30.4424 20.9764 29.7708 20.3048 28.9424 20.3048H26.8842C26.0557 20.3048 25.3842 20.9764 25.3842 21.8048V22.2461H22.7692C21.9407 22.2461 21.2692 22.9177 21.2692 23.7461V31.482C21.2692 32.3104 21.9407 32.982 22.7692 32.982H24.8265C25.6549 32.982 26.3265 32.3104 26.3265 31.482Z" fill="#FF6F3F" stroke="#FFF7E2" stroke-width="3" stroke-linejoin="round"/>
<path d="M26.8842 16.4339C26.0557 16.4339 25.3842 17.1055 25.3842 17.9339V18.3679H24.8265C23.9981 18.3679 23.3265 19.0395 23.3265 19.8679V20.3049H22.7692C21.9407 20.3049 21.2692 20.9764 21.2692 21.8049V23.7462C21.2692 24.5746 21.9407 25.2462 22.7692 25.2462H26.8842C27.7126 25.2462 28.3842 24.5746 28.3842 23.7462V23.3049H28.9424C29.7708 23.3049 30.4424 22.6333 30.4424 21.8049V17.9339C30.4424 17.1055 29.7708 16.4339 28.9424 16.4339H26.8842Z" fill="#FF3F46" stroke="#FFF7E2" stroke-width="3" stroke-linejoin="round"/>
<path d="M32.4999 16C32.4999 15.1716 31.8283 14.5 30.9999 14.5H28.9423C28.1138 14.5 27.4423 15.1716 27.4423 16V17.934C27.4423 18.7624 28.1138 19.434 28.9423 19.434H30.9999C31.8283 19.434 32.4999 18.7624 32.4999 17.934V16Z" fill="#FF3F46" stroke="#FFF7E2" stroke-width="3" stroke-linejoin="round"/>
<path d="M38.6725 21.8048C38.6725 20.9764 38.0009 20.3048 37.1725 20.3048H35.1149C34.2864 20.3048 33.6149 20.9764 33.6149 21.8048V23.7461C33.6149 24.5746 34.2864 25.2461 35.1149 25.2461H37.1725C38.0009 25.2461 38.6725 24.5746 38.6725 23.7461V21.8048Z" fill="#FF3F46" stroke="#FFF7E2" stroke-width="3" stroke-linejoin="round"/>
<path d="M36.6148 19.868C36.6148 19.0395 35.9432 18.368 35.1148 18.368H33.0571C32.2287 18.368 31.5571 19.0395 31.5571 19.868V21.8049C31.5571 22.6334 32.2287 23.3049 33.0571 23.3049H35.1148C35.9432 23.3049 36.6148 22.6334 36.6148 21.8049V19.868Z" fill="#FF3F46" stroke="#FFF7E2" stroke-width="3" stroke-linejoin="round"/>
<path d="M38.6727 24.1804V23.7462C38.6727 22.9178 38.0011 22.2462 37.1727 22.2462H33.0571C32.2287 22.2462 31.5571 22.9178 31.5571 23.7462V25.6804C31.5571 26.5088 32.2287 27.1804 33.0571 27.1804L33.6151 27.1804V27.6144C33.6151 28.4428 34.2866 29.1144 35.1151 29.1144H35.6727V31.482C35.6727 32.3105 36.3443 32.982 37.1727 32.982H39.2301C40.0585 32.982 40.7301 32.3105 40.7301 31.482V25.6804C40.7301 24.852 40.0585 24.1804 39.2301 24.1804H38.6727Z" fill="#FF6F3F" stroke="#FFF7E2" stroke-width="3" stroke-linejoin="round"/>
<path d="M28.3841 29.1144H31.557V29.5489C31.557 30.3774 32.2286 31.0489 33.057 31.0489H33.6149V33.4169C33.6149 34.2453 34.2865 34.9169 35.1149 34.9169H37.1726C38.001 34.9169 38.6726 34.2453 38.6726 33.4169V27.6144C38.6726 26.786 38.001 26.1144 37.1726 26.1144H36.6149V25.6805C36.6149 24.852 35.9434 24.1805 35.1149 24.1805H24.8264C23.998 24.1805 23.3264 24.852 23.3264 25.6805V33.4169C23.3264 34.2453 23.998 34.9169 24.8264 34.9169H26.8841C27.7125 34.9169 28.3841 34.2453 28.3841 33.4169V29.1144Z" fill="#FFAF3F" stroke="#FFF7E2" stroke-width="3" stroke-linejoin="round"/>
<path d="M35.1147 28.0489H34.5571V27.6147C34.5571 26.7863 33.8855 26.1147 33.0571 26.1147H26.8842C26.0557 26.1147 25.3842 26.7863 25.3842 27.6147V35.3514C25.3842 36.1798 26.0557 36.8514 26.8842 36.8514H35.1147C35.9432 36.8514 36.6147 36.1798 36.6147 35.3514V29.5489C36.6147 28.7205 35.9432 28.0489 35.1147 28.0489Z" fill="#FFEF3F" stroke="#FFF7E2" stroke-width="3" stroke-linejoin="round"/>
<path d="M33.057 29.982H32.4999V29.5489C32.4999 28.7204 31.8283 28.0489 30.9999 28.0489H28.9423C28.1138 28.0489 27.4423 28.7204 27.4423 29.5489V33.4168C27.4423 34.2452 28.1138 34.9168 28.9423 34.9168H33.057C33.8854 34.9168 34.557 34.2452 34.557 33.4168V31.482C34.557 30.6536 33.8854 29.982 33.057 29.982Z" fill="white" stroke="#FFF7E2" stroke-width="3" stroke-linejoin="round"/>
<path d="M47.4708 44.0648C47.4708 45.6681 46.0904 46.9655 44.3843 46.9655C42.6788 46.9655 41.2941 45.6681 41.2941 44.0648C41.2941 42.4609 42.6788 41.1581 44.3843 41.1581C46.0904 41.1579 47.4708 42.4607 47.4708 44.0648Z" fill="#7F6C5F"/>
<path d="M16.755 41.2721L16.7556 41.2745C16.7877 41.2658 16.821 41.2585 16.8534 41.2506L16.755 41.2721Z" fill="#7F6C5F"/>
<path d="M47.4709 38.252C47.4709 36.649 46.0905 35.3513 44.3844 35.3513C44.1075 35.3513 43.8405 35.3888 43.585 35.453L43.5839 35.4489L17.0402 41.21C17.2265 41.1769 17.4183 41.1578 17.6148 41.1578C19.3209 41.1578 20.7041 42.4607 20.7041 44.0645C20.7041 45.4073 19.7329 46.532 18.4153 46.8635L18.4165 46.8673L45.1994 41.0572L45.198 41.0523C46.5083 40.7157 47.4709 39.5904 47.4709 38.252Z" fill="#7F6C5F"/>
<path d="M20.7042 44.0648C20.7042 45.6681 19.3212 46.9655 17.6148 46.9655C15.9087 46.9655 14.5289 45.6681 14.5289 44.0648C14.5289 42.4609 15.9084 41.1581 17.6148 41.1581C19.3212 41.1579 20.7042 42.4607 20.7042 44.0648Z" fill="#A58D7C"/>
<path d="M41.2942 44.0648C41.2942 42.4609 42.6789 41.1581 44.3845 41.1581C44.5806 41.1581 44.7716 41.1771 44.9573 41.21L18.4165 35.4489L18.4153 35.4508C18.1578 35.3929 17.8977 35.3513 17.6148 35.3513C15.9087 35.3513 14.6018 36.649 14.6018 38.252C14.6018 39.5763 15.6604 40.6953 16.899 41.0439L16.8869 41.0534C16.9682 41.0768 17.0081 41.098 17.0917 41.1045L43.5839 46.8673L43.5851 46.8637C42.2672 46.5328 41.2942 45.4076 41.2942 44.0648Z" fill="#A58D7C"/>
<path d="M45.2433 41.2742L45.2438 41.272L45.1512 41.2519C45.1819 41.2592 45.2129 41.266 45.2433 41.2742Z" fill="#A58D7C"/>
<path d="M28.9424 23.7461V21.8048H26.8842V23.7461H22.7692V31.482H24.8265V25.6804H31V23.7461H28.9424Z" fill="#FF6F3F"/>
<path d="M26.8842 17.9339V19.8679H24.8265V21.8049H22.7692V23.7462H26.8842V21.8049H28.9424V17.9339H26.8842Z" fill="#FF3F46"/>
<path d="M30.9999 16H28.9423V17.934H30.9999V16Z" fill="#FF3F46"/>
<path d="M37.1725 21.8048H35.1149V23.7461H37.1725V21.8048Z" fill="#FF3F46"/>
<path d="M35.1148 19.868H33.0571V21.8049H35.1148V19.868Z" fill="#FF3F46"/>
<path d="M37.1727 25.6804V23.7462H33.0571V25.6804H35.1151V27.6144H37.1727V31.482H39.2301V25.6804H37.1727Z" fill="#FF6F3F"/>
<path d="M35.1149 27.6144V25.6805H24.8264V33.4169H26.8841V27.6144H33.057V29.5489H35.1149V33.4169H37.1726V27.6144H35.1149Z" fill="#FFAF3F"/>
<path d="M33.0571 29.5489V27.6147H26.8842V35.3514H35.1147V29.5489H33.0571ZM33.0571 33.4169H28.9424V29.5489H31V31.4821H33.0571V33.4169Z" fill="#FFEF3F"/>
<path d="M30.9999 31.482V29.5489H28.9423V33.4168H33.057V31.482H30.9999Z" fill="white"/>
</svg>
